<svg id="Layer_1" data-name="Layer 1" xmlns="http://www.w3.org/2000/svg" viewBox="0 0 80 80"><defs><style>.cls-1,.cls-2,.cls-4,.cls-5,.cls-6{fill:none;}.cls-1,.cls-2,.cls-6{stroke:#000;stroke-linecap:round;stroke-width:0.4px;}.cls-1,.cls-2,.cls-4,.cls-6{stroke-miterlimit:10;}.cls-2{stroke-dasharray:0.48 0.48;}.cls-3{fill:#a6a4a4;}.cls-4,.cls-5{stroke:#010101;stroke-width:0.94px;}.cls-5{stroke-linejoin:round;}.cls-6{stroke-dasharray:0.5;}</style></defs><path class="cls-1" d="M8.07,31.56l.2.13"/><path class="cls-2" d="M8.67,32a44.8,44.8,0,0,0,4.11,2.29A43.81,43.81,0,0,0,17,36.06"/><path class="cls-1" d="M17.26,36.14l.24.08"/><path class="cls-1" d="M8.4,30.74l.21.13"/><path class="cls-2" d="M9,31.13a44.8,44.8,0,0,0,4.11,2.29,44.55,44.55,0,0,0,4.25,1.81"/><path class="cls-1" d="M17.6,35.32l.23.08"/><path class="cls-3" d="M57.61,73.61l1,2.31A72.11,72.11,0,0,1,18.15,74.4l-1.44-.71s5.13-14.84,3.66-42.46c-.59,1.28-1.22,2.6-1.9,3.95-.57,1.12-1.14,2.2-1.71,3.25a11.34,11.34,0,0,1-3.33-.35,12.27,12.27,0,0,1-3-1.29,6.79,6.79,0,0,1-2.11-1.52,5.39,5.39,0,0,1-1-1.83c.34-.76-.41-1,.21-.48,2,1.8,9.64,4.78,9.64,4.78s3.39-6.85,4.55-9.18c.12,1,.29,2.67.44,4.7a147.84,147.84,0,0,1,.14,16.86c-.11,3.22-.27,5.54-.4,7.76a73.53,73.53,0,0,1-1.26,10.5c-.37,1.92-.75,3.45-1,4.3a66.6,66.6,0,0,0,17.41,3.17,66.44,66.44,0,0,0,18.07-1.62Z"/><path class="cls-3" d="M67,35.72S65.68,38,61,38.37c-1.63-5.26-2.52-6.7-2.52-6.7l.23-3,4.19,8.75Z"/><path class="cls-4" d="M16.71,10.13s3.62,13.49,4.12,15.1A25.12,25.12,0,0,1,22.15,33c.16,4.2.19,11.92.19,11.92s-.09,8.71-.27,11-1.24,11.23-1.24,11.23a51.59,51.59,0,0,1-1.17,5.49,66.58,66.58,0,0,0,41.1,0,39.69,39.69,0,0,1-1-5.43c-.08-1.74-.91-14-.91-14l-.37-9.83a75.13,75.13,0,0,1-.15-9.78,62.52,62.52,0,0,1,1.1-9.54,54.77,54.77,0,0,1,4.67-13.55"/><path class="cls-5" d="M21.7,28.56c-1.34,2.63-3.2,6.55-4.55,9.18a40.46,40.46,0,0,1-5.61-2.38A42.35,42.35,0,0,1,7.13,32.7s2.52-6.54,3.08-8.18S13,16.25,13.55,15a12.44,12.44,0,0,1,3.89-5.41c2.27-1.61,14-7.27,14-7.27a16.12,16.12,0,0,0,8.16,2.34,16.26,16.26,0,0,0,8.56-2.34S60.29,7.59,62.56,9.2a12.39,12.39,0,0,1,3.89,5.41c.58,1.29,2.79,7.91,3.34,9.56s3.08,8.18,3.08,8.18A40.72,40.72,0,0,1,68.46,35a40.61,40.61,0,0,1-5.61,2.39C61.5,34.76,60,31.66,58.66,29"/><path class="cls-4" d="M31.11,3.8a17.25,17.25,0,0,0,8.35,2.37,17.11,17.11,0,0,0,9.19-2.49"/><path class="cls-1" d="M62.42,35.8l.23-.09"/><path class="cls-2" d="M63.09,35.54a43.82,43.82,0,0,0,4.29-1.92,45.72,45.72,0,0,0,4-2.33"/><path class="cls-1" d="M71.58,31.16l.21-.14"/><path class="cls-1" d="M62,34.94l.24-.08"/><path class="cls-2" d="M62.71,34.69A45.13,45.13,0,0,0,67,32.76a41.17,41.17,0,0,0,4-2.33"/><path class="cls-1" d="M71.2,30.3l.21-.14"/><path class="cls-6" d="M20.72,70.91a65.62,65.62,0,0,0,19.44,2.93A66.61,66.61,0,0,0,60,71"/><path class="cls-6" d="M20.63,70.07A64.92,64.92,0,0,0,40.07,73a67.39,67.39,0,0,0,19.86-2.81"/><path class="cls-4" d="M29.56,2.94a5.71,5.71,0,0,0,.06,1.25c.61,3.85,5.2,7.64,10.18,7.67s9.67-3.69,10.26-7.54a5.83,5.83,0,0,0,0-1.41"/><path class="cls-5" d="M31.19,2.38a3.45,3.45,0,0,0-.13,1,5.25,5.25,0,0,0,.19,1.3c.6,2,4.08,5.78,8.85,5.66a9.46,9.46,0,0,0,8-5,4.55,4.55,0,0,0,.54-2.21,3.18,3.18,0,0,0-.1-.77"/></svg>