<?xml version="1.0" encoding="utf-8"?>
<!-- Generator: Adobe Illustrator 24.0.0, SVG Export Plug-In . SVG Version: 6.00 Build 0)  -->
<svg version="1.1" xmlns="http://www.w3.org/2000/svg" xmlns:xlink="http://www.w3.org/1999/xlink" x="0px" y="0px"
	 viewBox="0 0 650 650" style="enable-background:new 0 0 650 650;" xml:space="preserve">
<style type="text/css">
	.st0{fill:#231F20;}
	.st1{fill:#FFFFFF;}
	.st2{fill:#23282D;}
	.st3{fill:none;stroke:#000000;stroke-width:2;stroke-miterlimit:10;}
	.st4{fill:#FFFFFF;stroke:#000000;stroke-width:2;stroke-linejoin:round;stroke-miterlimit:10;}
	.st5{fill:none;stroke:#000000;stroke-width:2;stroke-linejoin:round;stroke-miterlimit:10;}
	.st6{fill:#231F20;stroke:#000000;stroke-width:3;stroke-miterlimit:10;}
	.st7{fill:none;stroke:#000000;stroke-width:4;stroke-miterlimit:10;}
</style>
<g id="Layer_1">
</g>
<g id="Layer_2">
	<g>
		<path d="M278.7,124.8c-0.6,0-1.1-0.1-1.6-0.5c-10.5-7.2-19.1-16.9-25.1-28.1c-3.4-6.7-5.7-13.9-7.2-21.2c0-0.2,0-0.4,0.1-0.5
			c7.6-8,14.1-16.9,19.5-26.5c2-3.5,4-7.6,5.5-10.7c0.2-0.6,0.9-1,1.5-1c0.6,0.1,1.1,0.6,1.1,1.2v0.1c0.4,2.7,1,5.5,2,8.1
			c0.7,1.7,1.5,3.4,2.5,5c3.7,6,8.2,11.5,13.5,16.4l0,0c9.6,8.9,19,17.1,28.7,25.2c0.1,0.1,0.2,0.4,0.2,0.5c0,0.2-0.1,0.4-0.2,0.5
			l-0.7,0.4c-5.7,3.2-15.4,8.6-21.9,14.2c-5.5,4.9-10.7,10.1-15.5,15.9C280.4,124.4,279.6,124.8,278.7,124.8z M246,75.1
			c1.4,7.1,3.7,14,7,20.6c5.9,11.1,14.4,20.6,24.7,27.6c0.7,0.5,1.6,0.4,2.1-0.4c4.9-5.6,10.1-11,15.6-16
			c6.6-5.7,16.2-11.2,22.1-14.4l0,0c-9.5-8-18.7-16.1-28.1-24.7c-5.2-5-9.9-10.6-13.7-16.7c-1-1.6-1.7-3.4-2.5-5.1
			c-1-2.7-1.7-5.5-2.1-8.4v-0.1c0-0.1,0-0.1-0.1-0.1c-0.1,0.1-0.1,0.1-0.1,0.2c-1.5,3.2-3.5,7.2-5.5,10.9
			C260.1,58.3,253.6,67.1,246,75.1z"/>
		<path d="M278.7,126.8c-1.1,0-2-0.3-2.8-0.9c-10.7-7.4-19.6-17.3-25.7-28.8c-3.4-6.7-5.9-14.1-7.4-21.8l0-0.4c0-0.4,0-1.2,0.7-1.9
			c7.4-7.7,13.8-16.5,19.2-26c2.1-3.6,4.2-8.1,5.4-10.6c0.6-1.3,1.9-2.2,3.3-2.2l0.4,0c1.6,0.3,2.7,1.7,2.7,3.2
			c0.4,2.8,1,5.3,1.9,7.5c0.7,1.7,1.4,3.2,2.3,4.7c3.7,5.9,8.1,11.3,13.1,15.9c9.8,9,19.1,17.2,28.6,25.2l0.1,0.1
			c0.4,0.4,0.8,1.1,0.8,1.9c0,1.1-0.6,1.7-0.8,1.9l-0.2,0.2l-1.5,0.8c-5.6,3.1-14.8,8.4-21,13.7c-5.9,5.2-10.9,10.3-15.3,15.6
			l-0.3,0.3C281.2,126.3,280,126.8,278.7,126.8z M248.2,75.7c1.3,6.4,3.6,12.9,6.6,19.1c5.6,10.6,13.8,19.8,23.7,26.6
			c4.9-5.6,10.1-11,15.6-16c5.8-5,13.6-9.8,19.9-13.2c-8.9-7.6-17.4-15.1-25.9-22.9c-5.4-5.1-10.1-10.9-14.1-17.1
			c-1.1-1.8-1.9-3.6-2.6-5.4l0-0.1c-0.4-1.1-0.8-2.2-1.1-3.3c-1,2.1-2.1,4.1-3.2,6C262,58.9,255.7,67.7,248.2,75.7z"/>
	</g>
	<g>
		<path d="M372.3,125.6c-0.9,0-1.6-0.4-2.2-1c-4.7-5.6-10-10.9-15.5-15.9c-6.5-5.6-16.1-11-21.9-14.2l-0.7-0.4
			c-0.1-0.1-0.2-0.2-0.2-0.5c0-0.2,0-0.4,0.2-0.5c9.7-8.1,19.1-16.4,28.7-25.2c5.1-4.9,9.7-10.4,13.5-16.4c0.9-1.6,1.7-3.2,2.5-5
			c1-2.6,1.6-5.4,2-8.1v-0.2c0-0.6,0.5-1.1,1.1-1.2s1.2,0.4,1.5,1c1.5,3.2,3.5,7.2,5.5,10.7c5.4,9.6,11.9,18.5,19.5,26.5
			c0.1,0.1,0.2,0.4,0.1,0.5c-1.4,7.4-3.9,14.5-7.2,21.2c-6,11.2-14.6,21-25.1,28.1C373.4,125.3,372.8,125.6,372.3,125.6z
			 M333.3,93.3c5.7,3.2,15.5,8.6,22.1,14.4c5.6,5,10.9,10.2,15.6,16c0.5,0.6,1.5,0.7,2.1,0.4c10.4-7.1,18.9-16.6,24.7-27.7
			c3.2-6.5,5.6-13.4,7-20.6c-7.5-8-14.1-16.9-19.4-26.5c-2-3.6-4-7.6-5.5-10.9c-0.1-0.1-0.2-0.2-0.2-0.2s0,0,0,0.1v0.1
			c-0.4,2.9-1.1,5.6-2.1,8.4l0,0c-0.7,1.7-1.5,3.5-2.5,5.1c-3.7,6.1-8.4,11.7-13.7,16.6l0,0C352,77.4,342.8,85.4,333.3,93.3z"/>
		<path d="M372.3,127.6c-1.4,0-2.6-0.5-3.7-1.6l-0.1-0.1c-4.3-5.1-9.3-10.2-15.3-15.7c-6.1-5.3-15.4-10.5-21-13.7l-1.5-0.8l-0.2-0.2
			c-0.2-0.2-0.8-0.8-0.8-1.9c0-1,0.4-1.7,1.1-2.1c9.5-7.9,18.8-16.1,28.5-25.1c5.2-4.9,9.6-10.3,13.1-15.9c0.9-1.6,1.7-3.1,2.4-4.8
			c0.8-2.2,1.4-4.7,1.8-7.5v-0.1c0-0.9,0.4-1.8,1.1-2.4v-2.4l1.6,1.6c1.5-0.3,3.1,0.6,3.7,2.2c1.7,3.7,3.7,7.5,5.4,10.5
			c5.3,9.5,11.8,18.3,19.2,26.1c0.2,0.2,0.7,0.8,0.7,1.7c0,0.3,0,0.5-0.1,0.8c-1.4,7.2-3.9,14.5-7.4,21.5
			c-6.2,11.7-15.1,21.6-25.8,28.9l-0.1,0.1C374,127.3,373.1,127.6,372.3,127.6z M372.5,122.4C372.6,122.4,372.6,122.4,372.5,122.4
			C372.6,122.4,372.6,122.4,372.5,122.4z M336.8,93c5.9,3.3,14,8.1,19.9,13.2c6.1,5.4,11.2,10.6,15.6,16
			c9.9-6.9,18.1-16.1,23.7-26.8c3-6.1,5.3-12.5,6.6-19.1c-7.6-8.2-14-17-19-26.1c-1-1.9-2.1-4-3.2-6c-0.3,1.1-0.7,2.1-1.1,3.3l0,0.1
			c-0.8,1.8-1.6,3.6-2.6,5.4c-3.9,6.4-8.6,12.1-14.1,17C353.6,78.6,344.6,86.4,336.8,93z"/>
	</g>
	<path d="M335.4,188.5h-19c-0.9,0-1.5-0.7-1.5-1.5l0,0V94.6c0-0.4,0.2-0.6,0.6-0.6c0.4,0,0.6,0.2,0.6,0.6V187c0,0.1,0.1,0.2,0.2,0.2
		l0,0h18.4V95.5c0-0.4,0.2-0.6,0.6-0.6c0.4,0,0.6,0.2,0.6,0.6v92.4C336.1,188.3,335.8,188.5,335.4,188.5z"/>
	<path d="M325.4,115.2c-2.4,0-4.2-1.9-4.2-4.2s1.9-4.2,4.2-4.2s4.2,1.9,4.2,4.2l0,0C329.7,113.3,327.8,115.2,325.4,115.2z
		 M325.4,108c-1.6,0-3,1.4-3,3s1.4,3,3,3s3-1.4,3-3l0,0C328.4,109.2,327.1,108,325.4,108z"/>
	<path d="M325.4,162.5c-2.4,0-4.2-1.9-4.2-4.2s1.9-4.2,4.2-4.2s4.2,1.9,4.2,4.2l0,0C329.7,160.5,327.8,162.5,325.4,162.5z
		 M325.4,155.2c-1.6,0-3,1.4-3,3s1.4,3,3,3s3-1.4,3-3l0,0C328.4,156.5,327.1,155.2,325.4,155.2z"/>
	<g>
		<path d="M379.8,38.1c-0.1,0-0.1,0-0.2,0c-34.8-12.9-73.2-13.1-108.1-0.7c-0.4,0.1-0.6-0.1-0.7-0.4c-0.1-0.4,0-0.6,0.4-0.7
			C306.3,23.8,344.9,24,380,37c0.4,0.1,0.5,0.5,0.4,0.7l0,0C380.3,38,380,38.1,379.8,38.1z"/>
		<path d="M379.8,40.1h-0.6l-0.3-0.1c-34.4-12.7-72.3-12.9-106.8-0.7c-1.3,0.4-2.6-0.1-3.2-1.4l-0.1-0.3c-0.3-0.9-0.1-1.6,0.1-2
			c0.2-0.4,0.6-1,1.5-1.3c35.7-12.6,74.9-12.3,110.3,0.8c0.7,0.2,1.2,0.8,1.5,1.5c0.3,0.7,0.3,1.4-0.1,2.1
			C381.7,39.6,380.8,40.1,379.8,40.1z M379.3,38.9C379.3,38.9,379.4,38.9,379.3,38.9C379.3,38.9,379.3,38.9,379.3,38.9z M271.7,38.2
			C271.7,38.2,271.7,38.2,271.7,38.2C271.7,38.2,271.7,38.2,271.7,38.2z"/>
	</g>
	<path d="M374.5,52.4h-0.1c-32-9.1-65.8-9.4-97.9-0.7c-0.4,0.1-0.7-0.1-0.7-0.5c-0.1-0.4,0.1-0.7,0.5-0.7
		c32.3-8.7,66.3-8.5,98.5,0.7c0.4,0.1,0.5,0.5,0.4,0.7C375.1,52.1,374.9,52.4,374.5,52.4z"/>
	<g>
		<path d="M490.9,319.9c-0.2,0-0.5-0.1-0.6-0.4c-5.5-10.5-10.6-21.2-15.5-32c-5.7-12.6-11.1-25.6-16-38.6c-0.1-0.2,0-0.6,0.2-0.9
			c0.2-0.1,0.6,0,0.9,0.2v0.1c4.9,13,10.2,26,15.9,38.6c4.7,10.6,9.9,21.1,15.2,31.5c25.6-8,49.7-20.2,71.2-36.2
			c-12.7-27.7-18.1-44-21.2-53.8l-0.4-1c-2.4-7.2-3.7-12.2-5.1-17c-1.7-6.4-3.5-12.2-7.1-22.6c-2-5.6-6.2-17-12.5-30.7
			c-4.6-10.1-6.9-15.1-9.9-19.7c-6.5-9.6-14.9-17.9-24.5-24.4c-2-1.4-3.7-2.4-7-4.2l-1-0.5c-9.9-5.6-20.1-10.7-30.6-15.2l-0.5-0.2
			c-11.4-5-23.5-10.5-37-16.6c-0.2-0.1-0.5-0.5-0.2-0.7l0,0c0.1-0.2,0.5-0.5,0.7-0.4l0,0c13.5,6.1,25.6,11.6,37,16.6l0.5,0.2
			c10.5,4.5,20.9,9.6,30.7,15.2l1,0.5c3.2,1.9,5,2.9,7.1,4.2c9.7,6.6,18.1,15,24.7,24.6c3,4.6,5.4,9.7,10,19.9
			c6.2,13.9,10.5,25.2,12.5,30.8c3.7,10.4,5.4,16.4,7.1,22.7c1.4,4.7,2.7,9.7,5.1,17l0.4,1c3.1,9.7,8.5,26.1,21.4,54.1
			c0.1,0.2,0,0.6-0.1,0.7c-21.9,16.4-46.3,28.8-72.4,36.8L490.9,319.9z"/>
		<path d="M492.9,321.9h-2c-1,0-2-0.6-2.4-1.5c-5-9.4-10-19.9-15.5-32c-5.7-12.5-11.1-25.5-16-38.7c-0.4-1-0.2-2.2,0.7-3l0.2-0.2
			l0.3-0.1c1-0.5,2.3-0.3,3.2,0.6l0.6,0.6v0.6c4.7,12.4,9.9,25.2,15.7,38.1c4.3,9.6,9,19.4,14.4,29.9c24.4-7.8,47.2-19.4,67.7-34.4
			c-11.4-25.1-16.9-40.6-20.6-52.5l-0.4-1c-2-6.1-3.3-10.7-4.5-14.7l-0.7-2.4c-1.8-6.6-3.5-12.3-7.1-22.5c-2-5.5-6.2-16.9-12.4-30.6
			l-0.5-1.1c-4.3-9.4-6.4-14.1-9.2-18.4c-6.3-9.3-14.3-17.3-23.9-23.8c-1.9-1.3-3.5-2.2-6.5-3.9l-0.3-0.2l-1-0.5
			c-9.9-5.7-20.1-10.7-30.4-15.1l-0.6-0.3c-11.4-5-23.8-10.6-36.9-16.6c-0.8-0.4-1.4-1.1-1.5-1.9c-0.1-0.6,0.1-1.3,0.4-1.8
			c0.7-1,2-1.6,3.3-1c13.1,5.9,25.4,11.5,36.9,16.6l0.5,0.3c10.7,4.6,21.1,9.7,30.8,15.3l1.7,0.9c2.9,1.6,4.6,2.6,6.6,4
			c10,6.8,18.5,15.2,25.3,25.1c3.1,4.8,5.5,9.9,10.2,20.2c6.3,14,10.6,25.4,12.6,31c3.7,10.2,5.3,16.1,7,22.4l0.8,2.9
			c1.1,4,2.4,8.5,4.4,14.5l0.3,0.9c2.8,8.9,8.1,25.2,21.3,53.9c0.5,1,0.1,2.3-0.5,3l-0.2,0.2c-21.8,16.3-45.9,28.7-71.6,36.7
			L492.9,321.9z M405.2,76.9C405.2,76.9,405.2,77,405.2,76.9C405.2,77,405.2,76.9,405.2,76.9z"/>
	</g>
	<path class="st0" d="M325.4,581.1c-0.4,0-0.6-0.2-0.6-0.6s0.2-0.6,0.6-0.6h3.1c0.4,0,0.6,0.2,0.6,0.6s-0.2,0.6-0.6,0.6H325.4z
		 M322.3,581.1L322.3,581.1h-3l-0.1-0.6l0.1-0.6h3c0.4,0,0.6,0.2,0.6,0.6S322.7,581.1,322.3,581.1L322.3,581.1z M331.7,581.1
		c-0.4,0-0.6-0.2-0.6-0.6s0.2-0.6,0.6-0.6h3.1l0,0c0.4,0,0.6,0.2,0.6,0.6s-0.2,0.6-0.6,0.6H331.7z M316.1,581.1L316.1,581.1h-3.1
		c-0.4,0-0.6-0.2-0.6-0.6s0.2-0.6,0.6-0.6h3.1c0.4,0,0.6,0.2,0.6,0.6S316.4,581.1,316.1,581.1z M337.9,581c-0.4,0-0.6-0.2-0.6-0.6
		s0.2-0.6,0.6-0.6l3.1-0.1l0,0c0.4,0,0.6,0.2,0.6,0.6s-0.2,0.6-0.6,0.6L337.9,581L337.9,581z M309.8,581L309.8,581l-3.1-0.1
		c-0.4,0-0.6-0.2-0.6-0.6l0,0c0-0.4,0.2-0.6,0.6-0.6l0,0l3.1,0.1c0.4,0,0.6,0.2,0.6,0.6S310.2,581,309.8,581L309.8,581z
		 M344.2,580.9c-0.4,0-0.6-0.2-0.6-0.6s0.2-0.6,0.6-0.6l0,0l3.1-0.1c0.4,0,0.6,0.2,0.6,0.6s-0.2,0.6-0.6,0.6L344.2,580.9
		L344.2,580.9z M303.6,580.9L303.6,580.9l-3.1-0.1c-0.4,0-0.6-0.2-0.6-0.6s0.2-0.6,0.6-0.6l0,0l3.1,0.1c0.4,0,0.6,0.2,0.6,0.6
		S304,580.9,303.6,580.9L303.6,580.9z M319.2,580.6 M350.4,580.6c-0.4,0-0.6-0.2-0.6-0.6s0.2-0.6,0.6-0.6l0,0l3.1-0.1
		c0.4,0,0.6,0.2,0.6,0.6s-0.2,0.6-0.6,0.6L350.4,580.6L350.4,580.6z M297.3,580.5L297.3,580.5l-3.1-0.1c-0.4,0-0.6-0.4-0.6-0.6
		c0-0.4,0.4-0.6,0.6-0.6l0,0l3.1,0.1c0.4,0,0.6,0.2,0.6,0.6S297.8,580.6,297.3,580.5L297.3,580.5z M356.7,580.3
		c-0.4,0-0.6-0.2-0.6-0.6s0.2-0.6,0.6-0.6l3.1-0.2c0.4,0,0.6,0.2,0.6,0.6s-0.2,0.6-0.6,0.6L356.7,580.3L356.7,580.3z M291.1,580.1
		L291.1,580.1l-3.1-0.2c-0.4,0-0.6-0.4-0.6-0.6c0-0.2,0.4-0.6,0.6-0.6c1,0.1,2.1,0.1,3.1,0.2c0.4,0,0.6,0.2,0.6,0.6
		S291.6,580.1,291.1,580.1L291.1,580.1z M362.9,579.8c-0.4,0-0.6-0.2-0.6-0.6s0.2-0.6,0.5-0.6l0,0l3.1-0.2c0.4,0,0.6,0.2,0.6,0.6
		s-0.2,0.6-0.6,0.6L362.9,579.8L362.9,579.8z M285,579.8L285,579.8l-3.1-0.2c-0.4,0-0.6-0.4-0.6-0.6l0,0c0-0.4,0.4-0.6,0.6-0.6l0,0
		l3.1,0.2c0.4,0,0.6,0.2,0.6,0.6S285.3,579.8,285,579.8L285,579.8z M369.1,579.3c-0.4,0-0.6-0.2-0.6-0.6s0.2-0.6,0.5-0.6l0,0
		c1-0.1,2.1-0.1,3.1-0.2c0.4,0,0.6,0.2,0.7,0.6c0,0.4-0.2,0.6-0.5,0.6l0,0L369.1,579.3L369.1,579.3z M278.7,579.1L278.7,579.1
		l-3.1-0.2c-0.4,0-0.6-0.4-0.5-0.6l0,0c0-0.4,0.4-0.6,0.6-0.6l0,0l3.1,0.2c0.4,0,0.6,0.2,0.6,0.6S279.1,579.1,278.7,579.1
		L278.7,579.1z M375.3,578.6c-0.4,0-0.6-0.2-0.6-0.5c0-0.4,0.2-0.6,0.5-0.6l0,0l3.1-0.4c0.4,0,0.6,0.2,0.7,0.5
		c0,0.4-0.2,0.6-0.5,0.7L375.3,578.6L375.3,578.6z M272.5,578.5L272.5,578.5l-3.1-0.4c-0.4,0-0.6-0.4-0.5-0.6c0-0.4,0.4-0.6,0.6-0.5
		l0,0l3.1,0.4c0.4,0,0.6,0.4,0.6,0.6l0,0c-0.1,0.2-0.4,0.5-0.7,0.4V578.5z M381.5,577.9c-0.4,0-0.6-0.2-0.6-0.6s0.2-0.6,0.6-0.6
		l3.1-0.4c0.4,0,0.6,0.2,0.7,0.5c0.1,0.2-0.2,0.6-0.5,0.7L381.5,577.9L381.5,577.9z M266.2,577.6L266.2,577.6l-3.1-0.4
		c-0.4,0-0.6-0.4-0.5-0.7c0.1-0.4,0.4-0.6,0.7-0.5l3.1,0.4c0.4,0,0.6,0.4,0.5,0.7l0,0C266.9,577.4,266.6,577.6,266.2,577.6z
		 M387.8,577c-0.4,0-0.6-0.2-0.6-0.5c0-0.4,0.2-0.6,0.5-0.7l3.1-0.4c0.4,0,0.6,0.2,0.7,0.5c0,0.4-0.2,0.6-0.5,0.7L387.8,577
		L387.8,577z M260.1,576.9L260.1,576.9l-3.2-0.5c-0.4,0-0.6-0.4-0.5-0.7c0-0.4,0.4-0.6,0.7-0.5l3.1,0.5c0.4,0,0.6,0.4,0.6,0.6
		C260.9,576.5,260.4,576.9,260.1,576.9L260.1,576.9z M393.9,576.1c-0.2,0-0.6-0.2-0.6-0.5c0-0.4,0.2-0.6,0.5-0.7l3.1-0.5
		c0.4,0,0.6,0.1,0.7,0.5c0,0.4-0.1,0.6-0.5,0.7l0,0L393.9,576.1L393.9,576.1z M253.9,575.9L253.9,575.9l-3.2-0.5
		c-0.4,0-0.6-0.4-0.5-0.7l0,0c0-0.4,0.4-0.6,0.7-0.5l0,0l3.1,0.5c0.4,0,0.6,0.4,0.5,0.7l0,0C254.5,575.8,254.3,575.9,253.9,575.9
		L253.9,575.9z M400,575.1c-0.4,0-0.6-0.2-0.6-0.6s0.2-0.6,0.6-0.6l3.1-0.5c0.4,0,0.6,0.1,0.7,0.5c0,0.4-0.1,0.6-0.5,0.7l0,0
		L400,575.1L400,575.1z M247.6,575L247.6,575l-3.2-0.5c-0.4,0-0.6-0.4-0.5-0.7c0-0.4,0.4-0.6,0.7-0.5l3.1,0.5
		c0.4,0.1,0.6,0.4,0.5,0.7C248.3,574.8,248,574.9,247.6,575L247.6,575z M406.1,574.1c-0.2,0-0.6-0.2-0.6-0.5
		c-0.1-0.4,0.1-0.6,0.5-0.7l0,0l3.1-0.5c0.4,0,0.6,0.1,0.7,0.5c0,0.4-0.1,0.6-0.5,0.7L406.1,574.1L406.1,574.1z M241.6,573.9
		L241.6,573.9l-3.1-0.6c-0.4,0-0.6-0.4-0.5-0.7c0-0.4,0.4-0.6,0.7-0.5l3.1,0.6c0.4,0,0.6,0.4,0.6,0.6
		C242.3,573.6,241.9,573.9,241.6,573.9z M412.4,573c-0.2,0-0.5-0.2-0.6-0.5c0-0.4,0.1-0.6,0.5-0.7l3.1-0.6c0.4,0,0.6,0.1,0.7,0.5
		c0,0.4-0.1,0.6-0.5,0.7L412.4,573L412.4,573z M235.4,572.8L235.4,572.8l-3.1-0.6c-0.4-0.1-0.5-0.4-0.5-0.7s0.4-0.5,0.7-0.5l0,0
		l3,0.6c0.4,0,0.5,0.4,0.5,0.7l0,0C236,572.5,235.8,572.8,235.4,572.8L235.4,572.8z M418.5,571.8c-0.2,0-0.5-0.2-0.6-0.5
		c-0.1-0.4,0.1-0.6,0.5-0.7l0,0l3.1-0.6c0.4,0,0.6,0.1,0.7,0.5c0,0.4-0.1,0.6-0.5,0.7l-3.1,0.6H418.5z M229.3,571.5L229.3,571.5
		l-3.1-0.6c-0.4-0.1-0.5-0.4-0.5-0.7l0,0c0.1-0.4,0.4-0.5,0.7-0.5l0,0l3,0.6c0.4,0,0.5,0.4,0.5,0.7l0,0
		C229.9,571.4,229.7,571.5,229.3,571.5L229.3,571.5z M424.6,570.5c-0.2,0-0.5-0.2-0.6-0.5c-0.1-0.4,0.1-0.6,0.5-0.7l3-0.6
		c0.4-0.1,0.6,0.1,0.7,0.5c0.1,0.4-0.1,0.6-0.5,0.7l-3,0.6H424.6z M223.2,570.3H223l-3-0.6c-0.4-0.1-0.5-0.4-0.5-0.7l0,0
		c0.1-0.4,0.4-0.5,0.7-0.5l0,0l3,0.6c0.4,0,0.6,0.4,0.5,0.7C223.9,570,223.5,570.3,223.2,570.3L223.2,570.3z M430.7,569.2
		c-0.4,0-0.6-0.2-0.7-0.5c-0.1-0.2,0.2-0.6,0.5-0.7l3-0.7c0.4-0.1,0.6,0.1,0.7,0.5c0.1,0.4-0.1,0.6-0.5,0.7l0,0L430.7,569.2
		L430.7,569.2z M217.2,568.9L217.2,568.9l-3.1-0.7c-0.4-0.1-0.5-0.4-0.5-0.7c0.1-0.4,0.4-0.5,0.7-0.5l3,0.7c0.4,0.1,0.5,0.4,0.5,0.7
		C217.8,568.7,217.4,568.9,217.2,568.9L217.2,568.9L217.2,568.9z M436.8,567.8c-0.2,0-0.5-0.2-0.6-0.5c-0.1-0.4,0.1-0.6,0.5-0.7
		l3-0.7c0.4-0.1,0.6,0.1,0.7,0.5l0,0c0.1,0.4-0.1,0.6-0.5,0.7l-3,0.7H436.8z M211,567.4h-0.1l-3-0.7c-0.4-0.1-0.5-0.4-0.5-0.7
		c0-0.4,0.4-0.5,0.7-0.5l3,0.7c0.4,0,0.6,0.4,0.5,0.7C211.7,567.2,211.4,567.4,211,567.4z M442.8,566.2c-0.2,0-0.5-0.2-0.6-0.5
		c-0.1-0.4,0.1-0.6,0.5-0.7l0,0l3-0.7c0.4-0.1,0.7,0.1,0.7,0.5s-0.1,0.7-0.5,0.7l-3,0.7H442.8z M205,565.8h-0.1l-3-0.7
		c-0.4-0.1-0.5-0.4-0.5-0.7l0,0c0.1-0.4,0.4-0.5,0.7-0.5l3,0.7c0.4,0,0.6,0.4,0.5,0.7C205.7,565.7,205.3,565.9,205,565.8L205,565.8z
		 M448.8,564.5c-0.2,0-0.5-0.2-0.6-0.5c-0.1-0.4,0.1-0.6,0.5-0.7l3-0.9c0.4-0.1,0.6,0.1,0.7,0.5c0.1,0.4-0.1,0.6-0.5,0.7l-3,0.9
		H448.8z M198.9,564.2h-0.1l-3-0.9c-0.4-0.1-0.5-0.5-0.4-0.7c0.1-0.4,0.4-0.5,0.7-0.4l0,0l3,0.9c0.4,0.1,0.5,0.5,0.4,0.7
		C199.6,564,199.3,564.3,198.9,564.2L198.9,564.2z M454.9,562.9c-0.4,0-0.6-0.2-0.7-0.5c-0.1-0.2,0.2-0.6,0.5-0.7l3-0.9
		c0.4-0.1,0.6,0.1,0.7,0.4c0.1,0.4-0.1,0.6-0.4,0.7l-3,0.9L454.9,562.9z M192.9,562.5h-0.1l-3-0.9c-0.4-0.1-0.5-0.5-0.5-0.7
		c0.1-0.4,0.5-0.5,0.7-0.5l3,0.9c0.4,0.1,0.5,0.5,0.4,0.7C193.6,562.3,193.3,562.5,192.9,562.5L192.9,562.5z M460.9,561.3
		c-0.4,0-0.6-0.1-0.7-0.5c0-0.4,0.1-0.6,0.5-0.7l3-0.9c0.4-0.1,0.6,0.1,0.7,0.4c0.1,0.4-0.1,0.6-0.4,0.7l-3,0.9L460.9,561.3z
		 M186.9,560.8h-0.2l-3-0.9c-0.4-0.1-0.5-0.5-0.4-0.7c0.1-0.4,0.5-0.5,0.7-0.4l3,0.9c0.4,0.1,0.5,0.5,0.4,0.7
		C187.6,560.5,187.3,560.8,186.9,560.8L186.9,560.8z"/>
	<path d="M487.5,308.1c-0.2,0-0.5-0.1-0.6-0.4c-0.1-0.4,0.1-0.6,0.4-0.7l1.5-0.5c0.4-0.1,0.6,0.1,0.7,0.4c0.1,0.4,0,0.6-0.4,0.7l0,0
		l-1.5,0.5H487.5z"/>
	<path d="M492,306.5c-0.2,0-0.5-0.1-0.6-0.4c-0.1-0.4,0-0.6,0.4-0.7l3-1.1c0.4-0.1,0.6,0.1,0.7,0.5c0.1,0.2,0,0.6-0.4,0.7
		c-1,0.4-2,0.7-3,1.1L492,306.5z M498.1,304.3c-0.2,0-0.5-0.1-0.6-0.4c-0.1-0.4,0-0.6,0.4-0.7l0,0l3-1.2c0.4-0.1,0.6,0,0.7,0.4
		c0.1,0.4,0,0.6-0.4,0.7c-1,0.4-2,0.7-3,1.2H498.1L498.1,304.3z M504.1,301.8c-0.2,0-0.5-0.1-0.6-0.4c-0.1-0.4,0-0.6,0.4-0.7l3-1.2
		c0.4-0.1,0.6,0,0.9,0.4c0.1,0.4,0,0.6-0.4,0.9l-3,1.2C504.3,301.8,504.3,301.8,504.1,301.8L504.1,301.8z M510.1,299.3
		c-0.4,0.1-0.6-0.1-0.7-0.5c-0.1-0.4,0.1-0.6,0.5-0.7l3-1.4c0.2-0.1,0.6,0,0.9,0.2c0.2,0.2,0,0.6-0.2,0.9c0,0,0,0-0.1,0
		c-1,0.5-2,0.9-3,1.4C510.3,299.2,510.3,299.3,510.1,299.3L510.1,299.3z M516,296.5c-0.4,0.1-0.6-0.1-0.7-0.5
		c-0.1-0.4,0.1-0.6,0.5-0.7l0,0c1-0.5,2-0.9,3-1.4c0.2-0.1,0.6,0,0.9,0.2c0.1,0.2,0,0.6-0.2,0.9l0,0l-3,1.4
		C516.3,296.5,516.1,296.7,516,296.5L516,296.5z M521.9,293.8c-0.4,0-0.6-0.2-0.6-0.6c0-0.2,0.1-0.5,0.4-0.6l2.9-1.4
		c0.2-0.1,0.6,0,0.9,0.2c0.1,0.2,0,0.6-0.2,0.9l0,0l-2.9,1.5C522.1,293.8,522,293.8,521.9,293.8L521.9,293.8z M527.7,290.9
		c-0.4,0.1-0.6-0.1-0.7-0.5c-0.1-0.4,0.1-0.6,0.5-0.7l2.9-1.5c0.2-0.1,0.6-0.1,0.9,0.2c0.1,0.2,0.1,0.6-0.2,0.9c0,0,0,0-0.1,0
		l-2.9,1.5C527.9,290.8,527.9,290.9,527.7,290.9L527.7,290.9z M533.5,287.9c-0.4,0-0.6-0.2-0.6-0.6c0-0.2,0.1-0.4,0.4-0.5
		c1-0.5,1.9-1,2.9-1.5c0.2-0.1,0.6,0,0.9,0.2c0.1,0.2,0,0.6-0.2,0.9l0,0l-2.9,1.5C533.7,287.9,533.6,287.9,533.5,287.9L533.5,287.9z
		 M539.2,284.8c-0.2,0-0.5-0.1-0.5-0.4c-0.1-0.2,0-0.6,0.2-0.9c1-0.5,1.9-1.1,2.9-1.6c0.2-0.1,0.6,0,0.9,0.2
		c0.1,0.2,0.1,0.6-0.2,0.9l0,0l-2.9,1.6C539.4,284.8,539.4,284.8,539.2,284.8L539.2,284.8z M544.9,281.5c-0.4,0-0.6-0.2-0.6-0.6
		c0-0.2,0.1-0.4,0.2-0.5l2.7-1.6c0.2-0.1,0.6-0.1,0.9,0.2c0.1,0.2,0.1,0.6-0.2,0.9l-2.7,1.6C545,281.5,545,281.5,544.9,281.5
		L544.9,281.5z M550.4,278.2c-0.2,0-0.4-0.1-0.5-0.2c-0.1-0.2-0.1-0.6,0.2-0.9l0,0c0.9-0.5,1.9-1.1,2.7-1.7c0.2-0.1,0.6-0.1,0.9,0.2
		c0.1,0.2,0.1,0.6-0.1,0.9c-0.9,0.6-1.9,1.1-2.7,1.7C550.6,278.2,550.5,278.2,550.4,278.2L550.4,278.2z"/>
	<path class="st0" d="M556,274.7c-0.2,0-0.4-0.1-0.5-0.2c-0.1-0.2-0.1-0.6,0.1-0.9l1.2-0.9c0.2-0.2,0.6-0.1,0.9,0.1
		c0.2,0.2,0.1,0.6-0.1,0.9l-1.4,0.9C556.1,274.7,556,274.7,556,274.7z"/>
	<path d="M324.8,94c-2,0-4.1-0.2-6.1-0.6c-0.4,0-0.6-0.4-0.5-0.7c0-0.4,0.4-0.6,0.7-0.5c2,0.4,4,0.5,6.1,0.5c2.4,0,4.7-0.1,7-0.5
		c0.4-0.1,0.6,0.1,0.7,0.5c0.1,0.4-0.1,0.6-0.5,0.7l0,0c-2.4,0.4-4.9,0.5-7.2,0.5L324.8,94z"/>
	<g>
		<path d="M159.5,319.9c0,0-0.1,0-0.2,0c-26.1-8.1-50.6-20.6-72.4-37c-0.2-0.1-0.4-0.5-0.2-0.7c13.1-28,18.4-44.3,21.5-54.2l0.4-1
			c2.4-7.2,3.7-12.1,5-17c1.7-6.4,3.5-12.4,7.2-22.7c3.5-9.7,7.9-20.6,12.5-30.8c4.6-10.2,6.9-15.2,10-19.9
			c6.6-9.7,15.1-18.1,24.9-24.6c2.1-1.4,3.9-2.5,7.1-4.2l1-0.5c10-5.6,20.2-10.7,30.7-15.2l0.5-0.2c11.4-5,23.5-10.5,37-16.6
			c0.2-0.1,0.6,0,0.9,0.2l0,0c0.1,0.4,0,0.6-0.2,0.9c-13.5,6.1-25.6,11.6-37,16.6l-0.7,0.2c-10.5,4.5-20.7,9.6-30.7,15.2l-1,0.5
			c-3.2,1.9-5,2.9-7,4.2c-9.6,6.5-17.9,14.7-24.5,24.4c-3,4.5-5.2,9.6-9.9,19.7s-9,21.1-12.5,30.7c-3.7,10.4-5.4,16.4-7.1,22.6
			c-1.4,4.7-2.7,9.7-5.1,17l-0.4,1c-5.9,18.4-13,36.3-21.2,53.8c21.5,16,45.6,28.2,71.2,36.2c5.4-10.2,10.4-20.9,15.2-31.5
			c5.7-12.6,11-25.6,15.9-38.6c0.1-0.4,0.5-0.5,0.7-0.4c0.4,0.1,0.5,0.5,0.4,0.7c-4.9,13-10.2,26-16,38.6c-4.9,10.7-10,21.5-15.5,32
			C160,319.8,159.7,319.9,159.5,319.9z"/>
		<path d="M159.5,321.9h-0.6l-0.3-0.1c-26.4-8.2-50.9-20.7-73-37.2c-0.5-0.3-0.9-0.8-1-1.4c-0.2-0.6-0.2-1.4,0.1-1.9
			c13.2-28.3,18.5-44.9,21.4-53.9l0.4-1.1c2.5-7.8,3.9-12.7,4.9-16.8c1.6-6,3.4-12.2,7.3-22.9c3.6-10,8.1-21,12.5-31l0.1-0.2
			c4.6-10.1,6.9-15.2,10.1-20c6.8-10,15.3-18.4,25.4-25.1c2.1-1.4,3.9-2.5,7.3-4.3l1.1-0.5c10.2-5.7,20.6-10.9,30.8-15.3l0.4-0.2
			c11.5-5.1,23.9-10.7,37-16.6c1-0.5,2.2-0.2,3.1,0.7l0.3,0.3l0.2,0.4c0.2,0.6,0.4,1.8-0.7,2.9l-0.3,0.3l-0.3,0.1
			c-13.1,6-25.5,11.6-37,16.6l-0.2,0.1l-0.7,0.2c-10,4.3-20.3,9.4-30.5,15.1l-1.4,0.7c-3,1.7-4.6,2.7-6.5,3.9
			c-9.4,6.3-17.4,14.3-24,23.8c-2.6,4-4.7,8.6-8.6,17l-1.1,2.4c-4.1,9.1-8.6,19.9-12.4,30.6c-3.5,9.7-5.2,15.6-6.8,21.4l-1,3.5
			c-1.2,4-2.5,8.6-4.4,14.6l-0.4,1.1c-5.6,17.6-12.6,35.3-20.6,52.5c20.5,15.1,43.3,26.6,67.7,34.4c5.3-10.2,10.2-20.8,14.4-29.9
			c5.3-11.6,10.4-24.2,15.8-38.5c0.2-0.7,0.8-1.2,1.4-1.5c0.6-0.3,1.3-0.3,1.9,0c0.7,0.3,1.2,0.8,1.5,1.4c0.3,0.6,0.3,1.3,0,1.9
			c-4.9,13.1-10.3,26.2-16,38.7c-5.4,11.8-10.3,22.1-15.2,31.4c0,0.3-0.1,0.7-0.3,1C161.2,321.4,160.4,321.9,159.5,321.9z
			 M191.9,249.1L191.9,249.1C192,249.1,192,249.1,191.9,249.1C192,249.1,192,249.1,191.9,249.1z M245.2,76.9c0,0-0.1,0-0.1,0
			C245.1,76.9,245.1,76.9,245.2,76.9z"/>
	</g>
	<path d="M163.2,307c-0.1,0-0.1,0-0.2,0l-1.5-0.5c-0.4-0.1-0.5-0.5-0.4-0.7c0.1-0.2,0.5-0.5,0.7-0.4l1.5,0.5c0.4,0,0.6,0.4,0.5,0.7
		C163.8,306.9,163.6,307.1,163.2,307L163.2,307z"/>
	<path d="M158.7,305.4c-0.1,0-0.1,0-0.2,0l-3-1.2c-0.4-0.1-0.5-0.5-0.4-0.7c0.1-0.4,0.5-0.5,0.9-0.4l3,1.1c0.4,0.1,0.5,0.5,0.4,0.7
		S159,305.4,158.7,305.4z M152.6,303c-0.1,0-0.1,0-0.2,0l-3-1.2c-0.4-0.1-0.5-0.5-0.4-0.7l0,0c0.1-0.4,0.5-0.5,0.7-0.4l0,0l3,1.2
		c0.4,0.1,0.5,0.5,0.4,0.7l0,0C153.1,302.9,152.8,303,152.6,303L152.6,303z M146.6,300.5c-0.1,0-0.1,0-0.2,0l-3-1.2
		c-0.4-0.1-0.5-0.5-0.4-0.9c0.1-0.4,0.5-0.5,0.9-0.4l0,0l3,1.2c0.2,0.1,0.5,0.5,0.4,0.7C147.1,300.5,146.9,300.7,146.6,300.5
		L146.6,300.5z M140.6,298c-0.1,0-0.1,0-0.2,0l-3-1.4c-0.2-0.1-0.5-0.5-0.2-0.9c0.1-0.2,0.5-0.5,0.7-0.4l0,0l3,1.2
		c0.4,0.1,0.5,0.5,0.2,0.9C141.1,297.9,140.9,298,140.6,298L140.6,298z M134.7,295.4c-0.1,0-0.1,0-0.2,0l-3-1.4
		c-0.2-0.1-0.5-0.5-0.2-0.9l0,0c0.1-0.2,0.5-0.4,0.9-0.2l0,0l2.9,1.4c0.4,0.1,0.5,0.5,0.2,0.9C135.1,295.3,135,295.4,134.7,295.4z
		 M128.9,292.7c-0.1,0-0.1,0-0.2,0l-2.9-1.4c-0.2-0.1-0.5-0.5-0.2-0.9c0.1-0.2,0.5-0.5,0.9-0.2l2.9,1.4c0.2,0.1,0.5,0.5,0.2,0.9l0,0
		C129.2,292.5,129,292.7,128.9,292.7L128.9,292.7z M123,289.7c-0.1,0-0.2,0-0.2-0.1c-1-0.5-1.9-1-2.9-1.5c-0.2-0.1-0.4-0.5-0.2-0.9
		c0.1-0.2,0.5-0.4,0.9-0.2l0,0l2.9,1.5c0.2,0.1,0.5,0.5,0.2,0.9C123.5,289.5,123.2,289.8,123,289.7z M117.3,286.7
		c-0.1,0-0.2,0-0.2-0.1c-1-0.5-1.9-1-2.9-1.5c-0.4-0.1-0.5-0.5-0.4-0.9c0.1-0.4,0.5-0.5,0.9-0.4c0,0,0.1,0,0.1,0.1l2.9,1.5
		c0.2,0.1,0.4,0.5,0.2,0.9l0,0C117.8,286.5,117.5,286.7,117.3,286.7z M111.5,283.5c-0.1,0-0.2,0-0.2-0.1l-2.9-1.6
		c-0.2-0.1-0.4-0.5-0.2-0.9l0,0c0.1-0.2,0.5-0.4,0.9-0.2l2.9,1.6c0.2,0.1,0.4,0.5,0.2,0.9l0,0C112,283.4,111.8,283.5,111.5,283.5
		L111.5,283.5z M105.9,280.3c-0.1,0-0.2,0-0.2-0.1c-1-0.5-1.9-1.1-2.7-1.6c-0.2-0.1-0.4-0.5-0.2-0.9l0,0c0.1-0.2,0.5-0.4,0.9-0.2
		c0.9,0.5,1.9,1.1,2.7,1.6c0.2,0.1,0.4,0.5,0.2,0.9C106.3,280.2,106.1,280.3,105.9,280.3z M100.3,276.9c-0.1,0-0.2,0-0.4-0.1
		l-2.7-1.7c-0.2-0.2-0.4-0.6-0.1-0.9c0.1-0.2,0.5-0.4,0.9-0.1l2.7,1.7c0.2,0.1,0.4,0.6,0.1,0.9C100.8,276.9,100.5,276.9,100.3,276.9
		L100.3,276.9z"/>
	<path d="M94.8,273.6c-0.1,0-0.2,0-0.4-0.1l-1.2-0.9c-0.2-0.2-0.4-0.6-0.1-0.9c0.1-0.2,0.5-0.4,0.9-0.2l0,0l1.2,0.9
		c0.2,0.1,0.4,0.6,0.2,0.9l0,0C95.3,273.4,95,273.6,94.8,273.6z"/>
	<path d="M507.8,133.9c-0.1-0.8-0.7-1.5-1.4-1.9l-0.3-0.1c-1.3-0.4-2.7,0.1-3.3,1.3c-5.1,10.6-10.5,21.9-16.5,34.7
		c-7.3,15.4-9.9,21.3-13.1,28.9c-4.2,9.9-7.4,18.2-9.5,24.6c-3.4,10.1-5.6,16.8-7,26.1l-0.2,1.3c-0.4,2.4-0.7,4.9-1.2,17.3
		c-0.1,3.8-0.3,5.9-0.5,8.1l-0.1,1.7c-0.3,3-0.5,6.4-0.9,11.7c-0.5,7.6-1.8,27.9-2.4,51.4c-0.6,24.3-0.6,48.6,0.1,72.4
		c1.7,51.8,6.3,104.9,13.6,157.8c0.1,1.3-0.7,2.6-2,3c-42.5,12.7-86.6,19.4-131.2,20.1c-0.3-0.1-0.7-0.2-1-0.2
		c-49,0.5-97.5-6.3-143.9-20.2c-1.3-0.4-2.1-1.6-1.9-2.9c7.3-52.9,11.9-106,13.6-157.8c0.8-25.2,0.9-49.5,0.3-72.4
		c-0.6-22.1-1.7-41.7-2.4-51.4c-0.3-5.3-0.6-8.6-0.9-11.6c-0.2-3.3-0.4-5.2-0.6-9.9c-0.5-12.4-0.9-14.9-1.2-17.3l-0.2-1.4
		c-1.3-9.2-3.5-15.9-6.9-25.9l-0.1-0.2c-2.8-8.3-6.8-18-9.5-24.5l-0.1-0.2c-3.9-8.9-7-15.8-13.1-28.9c-4.8-10.4-10.2-21.7-16.4-34.7
		l-0.1-0.3l-0.2-0.2c-0.9-0.9-2.2-1.1-3.2-0.6l-0.3,0.1l-0.2,0.2c-0.9,0.9-1.1,2.2-0.6,3.2c6.2,13,11.6,24.4,16.4,34.7l0.3,0.6
		c6,12.7,9.3,19.6,12.8,28.2c1.8,4.2,6.2,14.9,9.3,24.2l0.3,0.9c3.2,9.5,5.3,15.7,6.5,24.3l0.1,1.2l0,0.2c0.4,2.2,0.7,4.5,1.2,16.8
		c0.1,3.9,0.3,6,0.5,8.3l0.1,1.8c0.3,2.7,0.5,6.1,0.9,11.6l0,0.4c0.5,7.6,1.9,27.8,2.5,50.8c0.6,22.7,0.5,46.9-0.3,72.1
		c-1.7,51.7-6.3,104.6-13.6,157.2c-0.7,3.8,1.7,7.5,5.5,8.8c43.4,12.9,88.1,19.7,133.1,20.4c0.2,0,0.4,0.1,0.6,0.1h5.4
		c0.2,0,0.3,0,0.5,0c0.2,0,0.3,0,0.5,0c0.9,0,1.8,0,2.8,0c45.7-0.4,91.5-7.1,136.2-20c3.8-1,6.2-4.7,5.7-8.7
		c-7.3-52.8-11.9-105.7-13.6-157.4c-0.7-23.7-0.8-47.9-0.1-72.1c0.6-23.5,1.9-43.7,2.4-51.3c0.4-5.6,0.6-9,0.9-11.6l0.1-1.7
		c0.2-2.3,0.4-4.5,0.5-8.3c0.5-12,0.8-14.4,1.2-16.7l0.2-1.4c1.4-9,3.5-15.6,6.8-25.2c2.8-8.3,6.8-17.9,9.4-24.3
		c3.2-7.5,5.9-13.4,12-26.4l1.1-2.4c5.1-11.2,10.6-22.7,15.9-33.8l0.3-0.7C507.8,135.1,507.9,134.5,507.8,133.9z"/>
</g>
<g id="Layer_17">
</g>
<g id="Layer_18">
</g>
<g id="Layer_3">
</g>
<g id="Layer_4">
</g>
<g id="Layer_5">
</g>
<g id="Layer_6">
</g>
<g id="Layer_7">
</g>
<g id="Layer_8">
</g>
<g id="Layer_9">
</g>
<g id="Layer_10">
</g>
<g id="Layer_11">
</g>
<g id="Layer_12">
</g>
<g id="Layer_13">
</g>
<g id="Layer_14">
</g>
<g id="Layer_15">
</g>
<g id="Layer_16">
</g>
</svg>
