<?xml version="1.0" encoding="UTF-8"?><svg id="c" xmlns="http://www.w3.org/2000/svg" viewBox="0 0 269.92 362.43"><path d="M4.62,329.56l-.48-25.19s-2.24-2.21-2.38-7.13c-.59-20.94,0-78.74,0-100.3,0-26.62,23.29-132.62,31.37-142.6,5.48-6.78,40.97-19.9,63.21-27.64" fill="none" stroke="#000" stroke-miterlimit="10" stroke-width="3"/><path d="M230.13,329.56l-.48-27.57s-2.11-3.2-2.38-9.51c-.91-21.3-4.48-79.61-6.18-100-1.9-22.82-8.88-40.4-8.88-40.4,0,0-1.3,37.56.13,60.85s5.04,114.82,5.04,114.82c0,0-24.8,23.68-38.11,28.43-13.31,4.75-44.21,4.75-44.21,4.75h-.21s-30.9,0-44.21-4.75c-13.31-4.75-38.11-28.43-38.11-28.43,0,0,2.79-89.83,4.22-113.12,1.43-23.29.14-62.54.14-62.54,0,0-6.17,17.59-8.07,40.4-1.7,20.39-5.27,78.71-6.18,100-.27,6.3-2.38,9.51-2.38,9.51l-.48,27.57" fill="none" stroke="#000" stroke-miterlimit="10" stroke-width="3"/><path d="M174.97,27.19c22.29,7.79,56.44,20.52,61.82,27.15,8.08,9.98,31.37,115.98,31.37,142.6,0,21.56.59,79.36,0,100.3-.14,4.92-2.38,7.13-2.38,7.13l-.48,25.19" fill="none" stroke="#000" stroke-miterlimit="10" stroke-width="3"/><path d="M103.96,7.84s4.44-6.34,30.42-6.34,32.64,6.34,32.64,6.34" fill="none" stroke="#000" stroke-miterlimit="10" stroke-width="3"/><path d="M158.85,23.4c-6.18-2.2-14.83-4.39-24.79-4.39-8.97,0-16.63,1.84-22.35,3.88" fill="none" stroke="#000" stroke-miterlimit="10" stroke-width="2"/><path d="M112.83,54.86c4.87-9.89,11.46-24.65,18.17-25.69-6.36-1.27-13.81-2.82-19.28-6.28-4.89-3.09-8.2-7.72-7.76-15.05-3.54,2.69-7.62,18.87-7.62,18.87,2.54,12.16,9.17,17.74,16.48,28.16Z" fill="none" stroke="#000" stroke-miterlimit="10" stroke-width="3"/><path d="M158.59,54.86c-4.87-9.89-11.46-24.65-18.17-25.69,12.05-2.41,27.99-5.8,27.04-21.33,4.09,2,7.62,18.87,7.62,18.87-2.54,12.16-9.17,17.74-16.48,28.16Z" fill="none" stroke="#000" stroke-miterlimit="10" stroke-width="3"/><path d="M230.16,329.8c-.72-4.32,35.17-.48,35.17-.48,0,0-34.22,6.18-35.17.48Z" fill="none" stroke="#000" stroke-linejoin="round" stroke-width="3"/><path d="M40.02,329.8c.72-4.32-35.17-.48-35.17-.48,0,0,34.22,6.18,35.17.48Z" fill="none" stroke="#000" stroke-linejoin="round" stroke-width="3"/><circle cx="134.7" cy="34.94" r="2.83" fill="none" stroke="#000" stroke-miterlimit="10"/><circle cx="134.7" cy="85.37" r="2.83" fill="none" stroke="#000" stroke-miterlimit="10"/><circle cx="134.7" cy="134.99" r="2.83" fill="none" stroke="#000" stroke-miterlimit="10"/><circle cx="134.7" cy="184.61" r="2.83" fill="none" stroke="#000" stroke-miterlimit="10"/><circle cx="134.7" cy="234.24" r="2.83" fill="none" stroke="#000" stroke-miterlimit="10"/><circle cx="134.7" cy="283.86" r="2.83" fill="none" stroke="#000" stroke-miterlimit="10"/><circle cx="134.7" cy="333.54" r="2.83" fill="none" stroke="#000" stroke-miterlimit="10"/><path d="M85.39,36.39c4.13-1.43,8.32-2.85,12.49-4.27" fill="none" stroke="#000" stroke-miterlimit="10"/><path d="M172.3,32.11c3.89,1.33,7.79,2.65,11.64,3.98" fill="none" stroke="#000" stroke-miterlimit="10"/><path d="M137.53,29.17h-2.83c-4.51,0-6.32,5.99-5.59,12.82,6.63.29,16.23-.05,22.47-.96" fill="none" stroke="#000" stroke-miterlimit="10"/><line x1="128.95" y1="42.1" x2="128.95" y2="360.93" fill="none" stroke="#000" stroke-miterlimit="10"/><path d="M128.95,42.1c-3.31,0-6.39-.31-9.1-1.07" fill="none" stroke="#000" stroke-miterlimit="10"/><path d="M56.9,152.08c1.15-13.52,1.74-27.04,1.92-40.59.32-17.65-2.03-36.88-14.61-50.26-2.25-2.47-4.74-4.86-7.81-6.26-1.02-.43-2.13-.81-3.26-.64,2.28-.4,4.52.8,6.4,1.97,1.91,1.26,3.65,2.75,5.26,4.37,13.54,13,16.34,32.92,16.02,50.83-.25,13.59-1.26,27.22-3.91,40.56h0Z" fill="#000" stroke-width="0"/><path d="M212.35,152.08c-2.93-13.34-4.3-27.03-4.5-40.69-.51-18.18,4-37.58,17.38-50.67,1.61-1.63,3.36-3.13,5.27-4.4,1.88-1.18,4.13-2.39,6.42-1.99-1.13-.17-2.25.21-3.27.64-3.08,1.41-5.58,3.81-7.84,6.29-12.42,13.46-16.5,32.21-15.97,50.09.15,13.61,1.08,27.15,2.51,40.71h0Z" fill="#000" stroke-width="0"/><path d="M4.14,304.37c14.32-1.81,30.17-4.74,35.65,0" fill="none" stroke="#000" stroke-miterlimit="10"/><path d="M229.92,304.37c7.95-4.42,21.67-2.47,35.87,0" fill="none" stroke="#000" stroke-miterlimit="10"/><path d="M207.09,114.99v30.46c0,3.89-8.83,13.7-12.18,13.7h-28.47c-3.77,0-13.66-10.26-13.66-13.24l.04-30.46" fill="none" stroke="#231f20" stroke-miterlimit="10" stroke-width="2"/><polyline points="173.36 125.57 173.36 128.99 173.36 159.2" fill="none" stroke="#231f20" stroke-miterlimit="10" stroke-width="2"/><line x1="186.94" y1="125.57" x2="186.94" y2="159.2" fill="none" stroke="#231f20" stroke-miterlimit="10" stroke-width="2"/><path d="M207.09,114.99c0,1.17-5.42,5.91-10.29,9.96-.68.57-33.67,1.04-34.76.07-4.14-3.66-9.26-9.05-9.26-9.57l.05-20.19c0-1.91,1.26-1.59,2.29-1.59h49.79c2.08,0,2.18,0,2.18,10.24v11.08Z" fill="none" stroke="#231f20" stroke-miterlimit="10" stroke-width="2"/><ellipse cx="180.15" cy="117.85" rx="3.15" ry="3.45" fill="none" stroke="#000" stroke-miterlimit="10"/><path d="M115.87,114.99v30.46c0,3.89-8.83,13.7-12.18,13.7h-28.47c-3.77,0-13.66-10.26-13.66-13.24l.04-30.46" fill="none" stroke="#231f20" stroke-miterlimit="10" stroke-width="2"/><line x1="82.15" y1="125.57" x2="82.15" y2="159.2" fill="#fff" stroke="#231f20" stroke-miterlimit="10" stroke-width="2"/><line x1="95.73" y1="125.45" x2="95.73" y2="159.2" fill="#fff" stroke="#231f20" stroke-miterlimit="10" stroke-width="2"/><path d="M115.87,114.99c0,1.17-5.42,5.91-10.29,9.96-.68.57-33.67,1.04-34.76.07-4.14-3.66-9.26-9.05-9.26-9.57l.05-20.19c0-1.91,1.26-1.59,2.29-1.59h49.79c2.08,0,2.18,0,2.18,10.24v11.08Z" fill="none" stroke="#231f20" stroke-miterlimit="10" stroke-width="2"/><ellipse cx="88.94" cy="117.85" rx="3.15" ry="3.45" fill="none" stroke="#000" stroke-miterlimit="10"/><ellipse cx="76.49" cy="41.57" rx="3.73" ry="1.92" transform="translate(-9.14 25.88) rotate(-18.14)" fill="none" stroke="#000" stroke-miterlimit="10"/><path d="M83.21,43.09s-8.81,4.35-13.69,6.33-14.08,4.07-18,6.32c-3.93,2.25-5.93,4.75-5.93,4.75l-7.78-5.6s1.13-2.49,6.19-4.87,15.32-5.08,18.04-6.34,13.84-6.4,13.84-6.4l11.89-.9-4.55,6.7Z" fill="none" stroke="#000" stroke-miterlimit="10" stroke-width="2"/><ellipse cx="195.11" cy="41.57" rx="1.92" ry="3.73" transform="translate(94.86 214.04) rotate(-71.86)" fill="none" stroke="#000" stroke-miterlimit="10"/><path d="M188.39,43.09s8.81,4.35,13.69,6.33,14.08,4.07,18,6.32c3.93,2.25,5.93,4.75,5.93,4.75l7.78-5.6s-1.13-2.49-6.19-4.87-15.32-5.08-18.04-6.34l-13.84-6.4-11.89-.9,4.55,6.7Z" fill="none" stroke="#000" stroke-miterlimit="10" stroke-width="2"/></svg>