<?xml version="1.0" encoding="UTF-8" standalone="no"?>
<!DOCTYPE svg PUBLIC "-//W3C//DTD SVG 1.1//EN" "http://www.w3.org/Graphics/SVG/1.1/DTD/svg11.dtd">
<svg width="100%" height="100%" viewBox="0 0 3121 335" version="1.1" xmlns="http://www.w3.org/2000/svg" xmlns:xlink="http://www.w3.org/1999/xlink" xml:space="preserve" xmlns:serif="http://www.serif.com/" style="fill-rule:evenodd;clip-rule:evenodd;stroke-linejoin:round;stroke-miterlimit:2;">
    <g transform="matrix(4.16667,0,0,4.16667,-2441.67,-2054.28)">
        <path d="M1327.4,537.52L1304.6,537.52C1303.79,537.52 1303.12,538.181 1303.12,538.996L1303.12,557.731C1303.12,558.546 1303.79,559.206 1304.6,559.206L1331.57,559.206C1332.38,559.206 1333.04,559.867 1333.04,560.681L1333.04,568.842C1333.04,569.657 1332.38,570.317 1331.57,570.317L1287.08,570.317C1286.26,570.317 1285.6,569.657 1285.6,568.842L1285.6,497.009C1285.6,496.194 1286.26,495.534 1287.08,495.534L1329.96,495.534C1330.78,495.534 1331.44,496.194 1331.44,497.009L1331.44,505.17C1331.44,505.984 1330.78,506.645 1329.96,506.645L1304.6,506.645C1303.79,506.645 1303.12,507.305 1303.12,508.12L1303.12,525.042C1303.12,525.857 1303.79,526.517 1304.6,526.517L1327.4,526.517C1328.21,526.517 1328.87,527.178 1328.87,527.993L1328.87,536.045C1328.87,536.86 1328.21,537.52 1327.4,537.52Z" style="fill-rule:nonzero;"/>
        <path d="M605.87,568.841L605.87,506.684C605.87,505.869 605.21,505.209 604.395,505.209L588.435,505.209C587.62,505.209 586.96,504.548 586.96,503.733L586.96,497.008C586.96,496.193 587.62,495.533 588.435,495.533L640.612,495.533C641.426,495.533 642.087,496.193 642.087,497.008L642.087,503.733C642.087,504.548 641.426,505.209 640.612,505.209L624.652,505.209C623.837,505.209 623.177,505.869 623.177,506.684L623.177,568.841C623.177,569.656 622.516,570.316 621.701,570.316L607.345,570.316C606.531,570.316 605.87,569.656 605.87,568.841Z" style="fill-rule:nonzero;"/>
        <path d="M1086.4,568.841L1086.4,506.684C1086.4,505.869 1085.74,505.209 1084.92,505.209L1068.96,505.209C1068.15,505.209 1067.49,504.548 1067.49,503.733L1067.49,497.008C1067.49,496.193 1068.15,495.533 1068.96,495.533L1121.14,495.533C1121.95,495.533 1122.61,496.193 1122.61,497.008L1122.61,503.733C1122.61,504.548 1121.95,505.209 1121.14,505.209L1105.18,505.209C1104.36,505.209 1103.7,505.869 1103.7,506.684L1103.7,568.841C1103.7,569.656 1103.04,570.316 1102.23,570.316L1087.87,570.316C1087.06,570.316 1086.4,569.656 1086.4,568.841Z" style="fill-rule:nonzero;"/>
        <path d="M665.663,541.257L679.413,541.257C680.385,541.257 681.092,540.333 680.837,539.395L674.087,514.562C673.695,513.118 671.65,513.108 671.244,514.548L664.243,539.381C663.978,540.322 664.685,541.257 665.663,541.257ZM688.951,569.231L684.63,553.453C684.454,552.812 683.872,552.368 683.207,552.368L661.736,552.368C661.074,552.368 660.494,552.808 660.315,553.446L655.897,569.238C655.718,569.876 655.138,570.316 654.476,570.316L645.241,570.316C644.246,570.316 643.536,569.352 643.832,568.402L666.203,496.57C666.395,495.953 666.966,495.533 667.612,495.533L683.989,495.533C684.637,495.533 685.21,495.957 685.4,496.577L707.362,568.41C707.652,569.358 706.942,570.316 705.951,570.316L690.374,570.316C689.709,570.316 689.126,569.872 688.951,569.231Z" style="fill-rule:nonzero;"/>
        <path d="M722.747,568.841L722.747,497.008C722.747,496.193 723.407,495.533 724.222,495.533L738.792,495.533C739.607,495.533 740.267,496.193 740.267,497.008L740.267,568.841C740.267,569.656 739.607,570.316 738.792,570.316L724.222,570.316C723.407,570.316 722.747,569.656 722.747,568.841Z" style="fill-rule:nonzero;"/>
        <path d="M760.329,568.841L760.329,497.008C760.329,496.193 760.99,495.533 761.804,495.533L776.374,495.533C777.189,495.533 777.85,496.193 777.85,497.008L777.85,559.9C777.85,560.714 778.51,561.375 779.325,561.375L804.26,561.375C805.075,561.375 805.735,562.035 805.735,562.85L805.735,568.841C805.735,569.656 805.075,570.316 804.26,570.316L761.804,570.316C760.99,570.316 760.329,569.656 760.329,568.841Z" style="fill-rule:nonzero;"/>
        <path d="M860.599,532.808C860.599,511.481 856.111,501.689 845.962,501.689C835.921,501.689 831.434,511.481 831.434,532.808C831.434,554.135 835.813,564.158 845.962,564.158C856.219,564.158 860.599,554.135 860.599,532.808ZM812.523,532.818C812.523,509.528 823.1,493.931 845.962,493.931C868.932,493.931 879.615,509.528 879.615,532.818C879.615,556.216 869.04,571.92 845.962,571.92C822.886,571.92 812.523,556.216 812.523,532.818Z" style="fill-rule:nonzero;"/>
        <path d="M1179.27,532.808C1179.27,511.481 1174.79,501.689 1164.64,501.689C1154.6,501.689 1150.11,511.481 1150.11,532.808C1150.11,554.135 1154.49,564.158 1164.64,564.158C1174.9,564.158 1179.27,554.135 1179.27,532.808ZM1131.2,532.818C1131.2,509.528 1141.78,493.931 1164.64,493.931C1187.61,493.931 1198.29,509.528 1198.29,532.818C1198.29,556.216 1187.72,571.92 1164.64,571.92C1141.56,571.92 1131.2,556.216 1131.2,532.818Z" style="fill-rule:nonzero;"/>
        <path d="M913.554,529.632C913.554,530.447 914.215,531.108 915.029,531.108L918.576,531.108C928.297,531.108 932.998,527.154 932.998,518.073C932.998,508.14 927.335,505.36 919.11,505.36L915.029,505.36C914.215,505.36 913.554,506.02 913.554,506.835L913.554,529.632ZM920.679,541.257L915.029,541.257C914.215,541.257 913.554,541.917 913.554,542.732L913.554,568.841C913.554,569.656 912.894,570.316 912.079,570.316L897.615,570.316C896.8,570.316 896.14,569.656 896.14,568.841L896.14,497.008C896.14,496.193 896.8,495.533 897.615,495.533L920.925,495.533C940.37,495.533 950.305,503.01 950.305,516.899C950.305,527.55 947.615,534.023 938.302,538.106C937.495,538.46 937.137,539.411 937.566,540.181L953.118,568.123C953.665,569.107 952.954,570.316 951.829,570.316L937.121,570.316C936.563,570.316 936.053,570.002 935.803,569.504L921.997,542.069C921.746,541.571 921.236,541.257 920.679,541.257Z" style="fill-rule:nonzero;"/>
        <path d="M1231.08,529.632C1231.08,530.447 1231.74,531.108 1232.55,531.108L1236.1,531.108C1245.82,531.108 1250.52,527.154 1250.52,518.073C1250.52,508.14 1244.86,505.36 1236.63,505.36L1232.55,505.36C1231.74,505.36 1231.08,506.02 1231.08,506.835L1231.08,529.632ZM1238.2,541.257L1232.55,541.257C1231.74,541.257 1231.08,541.917 1231.08,542.732L1231.08,568.841C1231.08,569.656 1230.42,570.316 1229.6,570.316L1215.14,570.316C1214.32,570.316 1213.66,569.656 1213.66,568.841L1213.66,497.008C1213.66,496.193 1214.32,495.533 1215.14,495.533L1238.45,495.533C1257.89,495.533 1267.83,503.01 1267.83,516.899C1267.83,527.55 1265.14,534.023 1255.82,538.106C1255.02,538.46 1254.66,539.411 1255.09,540.181L1270.64,568.123C1271.19,569.107 1270.48,570.316 1269.35,570.316L1254.64,570.316C1254.09,570.316 1253.58,570.002 1253.32,569.504L1239.52,542.069C1239.27,541.571 1238.76,541.257 1238.2,541.257Z" style="fill-rule:nonzero;"/>
        <path d="M1003.76,552.015L1016.72,549.928C1017.48,549.805 1018.23,550.283 1018.39,551.038C1019.34,555.529 1022.28,561.663 1031.18,561.663C1037.59,561.663 1041.65,558.029 1041.65,551.728C1041.65,543.287 1032.78,541.045 1023.38,537.519C1014.2,534.099 1004.69,529.718 1004.69,516.151C1004.69,503.01 1014.3,493.931 1031.4,493.931C1048.42,493.931 1055.85,503.054 1057.36,511.262C1057.51,512.068 1056.91,512.824 1056.09,512.935L1043.33,514.684C1042.57,514.787 1041.87,514.309 1041.7,513.568C1040.83,509.944 1038.57,504.186 1030.54,504.186C1025.09,504.186 1020.71,507.284 1020.71,513.479C1020.71,521.173 1029.69,523.094 1038.77,526.514C1048.49,530.254 1058.1,534.847 1058.1,548.522C1058.1,561.449 1049.13,571.92 1029.9,571.92C1012.83,571.92 1004.84,563.604 1002.54,553.781C1002.35,552.96 1002.93,552.15 1003.76,552.015Z" style="fill-rule:nonzero;"/>
    </g>
</svg>
