<?xml version="1.0" encoding="UTF-8" standalone="no"?>
<!DOCTYPE svg PUBLIC "-//W3C//DTD SVG 1.1//EN" "http://www.w3.org/Graphics/SVG/1.1/DTD/svg11.dtd">
<svg width="100%" height="100%" viewBox="0 0 1123 590" version="1.1" xmlns="http://www.w3.org/2000/svg" xmlns:xlink="http://www.w3.org/1999/xlink" xml:space="preserve" xmlns:serif="http://www.serif.com/" style="fill-rule:evenodd;clip-rule:evenodd;stroke-linejoin:round;stroke-miterlimit:2;">
    <g transform="matrix(4.16667,0,0,4.16667,-3438.03,-1583.71)">
        <path d="M1080.54,493.901L1062.18,493.901C1061.53,493.901 1061,494.433 1061,495.089L1061,510.178C1061,510.833 1061.53,511.366 1062.18,511.366L1083.9,511.366C1084.56,511.366 1085.09,511.899 1085.09,512.555L1085.09,519.126C1085.09,519.782 1084.56,520.315 1083.9,520.315L1048.07,520.315C1047.42,520.315 1046.88,519.782 1046.88,519.126L1046.88,461.273C1046.88,460.617 1047.42,460.085 1048.07,460.085L1082.61,460.085C1083.27,460.085 1083.8,460.617 1083.8,461.273L1083.8,467.847C1083.8,468.502 1083.27,469.035 1082.61,469.035L1062.18,469.035C1061.53,469.035 1061,469.566 1061,470.222L1061,483.851C1061,484.507 1061.53,485.04 1062.18,485.04L1080.54,485.04C1081.2,485.04 1081.73,485.57 1081.73,486.226L1081.73,492.712C1081.73,493.368 1081.2,493.901 1080.54,493.901" style="fill:rgb(30,28,26);fill-rule:nonzero;"/>
    </g>
    <g transform="matrix(4.16667,0,0,4.16667,-3438.03,-2239.12)">
        <path d="M840.569,597.776L840.569,547.716C840.569,547.06 840.036,546.527 839.381,546.527L826.528,546.527C825.872,546.527 825.339,545.997 825.339,545.338L825.339,539.923C825.339,539.267 825.872,538.734 826.528,538.734L868.548,538.734C869.207,538.734 869.737,539.267 869.737,539.923L869.737,545.338C869.737,545.997 869.207,546.527 868.548,546.527L855.695,546.527C855.04,546.527 854.507,547.06 854.507,547.716L854.507,597.776C854.507,598.431 853.976,598.964 853.32,598.964L841.758,598.964C841.102,598.964 840.569,598.431 840.569,597.776" style="fill:rgb(30,28,26);fill-rule:nonzero;"/>
    </g>
    <g transform="matrix(4.16667,0,0,4.16667,-3438.03,-1583.71)">
        <path d="M899.812,519.126L899.812,469.066C899.812,468.411 899.279,467.878 898.623,467.878L885.77,467.878C885.114,467.878 884.582,467.347 884.582,466.689L884.582,461.274C884.582,460.618 885.114,460.085 885.77,460.085L927.791,460.085C928.449,460.085 928.98,460.618 928.98,461.274L928.98,466.689C928.98,467.347 928.449,467.878 927.791,467.878L914.938,467.878C914.282,467.878 913.75,468.411 913.75,469.066L913.75,519.126C913.75,519.782 913.219,520.315 912.563,520.315L901.001,520.315C900.345,520.315 899.812,519.782 899.812,519.126" style="fill:rgb(30,28,26);fill-rule:nonzero;"/>
    </g>
    <g transform="matrix(4.16667,0,0,4.16667,-3438.03,-2239.12)">
        <path d="M883.663,575.56L894.738,575.56C895.519,575.56 896.09,574.816 895.884,574.061L890.447,554.059C890.132,552.897 888.484,552.89 888.157,554.05L882.52,574.049C882.306,574.807 882.875,575.56 883.663,575.56M902.419,598.09L898.939,585.382C898.796,584.866 898.328,584.508 897.792,584.508L880.5,584.508C879.967,584.508 879.5,584.863 879.356,585.377L875.797,598.095C875.655,598.609 875.186,598.964 874.653,598.964L867.216,598.964C866.415,598.964 865.842,598.188 866.082,597.423L884.099,539.57C884.253,539.073 884.712,538.734 885.233,538.734L898.422,538.734C898.946,538.734 899.405,539.075 899.559,539.575L917.247,597.427C917.479,598.192 916.909,598.964 916.111,598.964L903.565,598.964C903.03,598.964 902.559,598.607 902.419,598.09" style="fill:rgb(30,28,26);fill-rule:nonzero;"/>
    </g>
    <g transform="matrix(4.16667,0,0,4.16667,-3438.03,-2239.12)">
        <path d="M924.144,597.776L924.144,539.923C924.144,539.267 924.677,538.734 925.333,538.734L937.066,538.734C937.722,538.734 938.254,539.267 938.254,539.923L938.254,597.776C938.254,598.431 937.722,598.964 937.066,598.964L925.333,598.964C924.677,598.964 924.144,598.431 924.144,597.776" style="fill:rgb(30,28,26);fill-rule:nonzero;"/>
    </g>
    <g transform="matrix(4.16667,0,0,4.16667,-3438.03,-2239.12)">
        <path d="M948.114,597.776L948.114,539.923C948.114,539.267 948.647,538.734 949.303,538.734L961.035,538.734C961.691,538.734 962.224,539.267 962.224,539.923L962.224,590.575C962.224,591.231 962.757,591.763 963.413,591.763L983.495,591.763C984.151,591.763 984.684,592.294 984.684,592.95L984.684,597.776C984.684,598.431 984.151,598.964 983.495,598.964L949.303,598.964C948.647,598.964 948.114,598.431 948.114,597.776" style="fill:rgb(30,28,26);fill-rule:nonzero;"/>
    </g>
    <g transform="matrix(4.16667,0,0,4.16667,-3438.03,-2239.12)">
        <path d="M1024.94,568.754C1024.94,551.577 1021.33,543.692 1013.15,543.692C1005.07,543.692 1001.45,551.577 1001.45,568.754C1001.45,585.93 1004.98,594.003 1013.15,594.003C1021.41,594.003 1024.94,585.93 1024.94,568.754M986.219,568.761C986.219,550.005 994.738,537.443 1013.15,537.443C1031.65,537.443 1040.25,550.005 1040.25,568.761C1040.25,587.605 1031.74,600.254 1013.15,600.254C994.565,600.254 986.219,587.605 986.219,568.761" style="fill:rgb(30,28,26);fill-rule:nonzero;"/>
    </g>
    <g transform="matrix(4.16667,0,0,4.16667,-3438.03,-1583.71)">
        <path d="M969.372,490.105C969.372,472.928 965.758,465.043 957.584,465.043C949.498,465.043 945.882,472.928 945.882,490.105C945.882,507.281 949.41,515.353 957.584,515.353C965.843,515.353 969.372,507.281 969.372,490.105M930.652,490.112C930.652,471.355 939.172,458.794 957.584,458.794C976.082,458.794 984.687,471.355 984.687,490.112C984.687,508.955 976.17,521.605 957.584,521.605C938.999,521.605 930.652,508.955 930.652,490.112" style="fill:rgb(30,28,26);fill-rule:nonzero;"/>
    </g>
    <g transform="matrix(4.16667,0,0,4.16667,-3438.03,-2239.13)">
        <path d="M1062.73,566.199C1062.73,566.855 1063.27,567.388 1063.92,567.388L1066.78,567.388C1074.61,567.388 1078.39,564.203 1078.39,556.888C1078.39,548.89 1073.83,546.65 1067.21,546.65L1063.92,546.65C1063.27,546.65 1062.73,547.182 1062.73,547.838L1062.73,566.199ZM1068.47,575.562L1063.92,575.562C1063.27,575.562 1062.73,576.092 1062.73,576.748L1062.73,597.777C1062.73,598.433 1062.2,598.963 1061.55,598.963L1049.9,598.963C1049.24,598.963 1048.71,598.433 1048.71,597.777L1048.71,539.925C1048.71,539.269 1049.24,538.736 1049.9,538.736L1068.67,538.736C1084.33,538.736 1092.33,544.758 1092.33,555.944C1092.33,564.522 1090.17,569.734 1082.66,573.023C1082.02,573.307 1081.73,574.074 1082.07,574.695L1094.6,597.199C1095.04,597.99 1094.47,598.963 1093.56,598.963L1081.71,598.963C1081.27,598.963 1080.86,598.713 1080.65,598.31L1069.54,576.215C1069.33,575.815 1068.92,575.562 1068.47,575.562" style="fill:rgb(30,28,26);fill-rule:nonzero;"/>
    </g>
    <g transform="matrix(4.16667,0,0,4.16667,-3438.03,-1583.72)">
        <path d="M1007.18,487.549C1007.18,488.205 1007.71,488.738 1008.36,488.738L1011.22,488.738C1019.05,488.738 1022.83,485.553 1022.83,478.239C1022.83,470.24 1018.27,468 1011.65,468L1008.36,468C1007.71,468 1007.18,468.533 1007.18,469.189L1007.18,487.549ZM1011.94,496.912L1008.36,496.912C1007.71,496.912 1007.18,497.443 1007.18,498.098L1007.18,519.128C1007.18,519.784 1006.64,520.314 1005.99,520.314L994.339,520.314C993.683,520.314 993.15,519.784 993.15,519.128L993.15,461.275C993.15,460.619 993.683,460.087 994.339,460.087L1013.11,460.087C1028.77,460.087 1036.77,466.108 1036.77,477.294C1036.77,485.8 1034.13,490.569 1026.93,492.965C1026.22,493.202 1025.87,494.002 1026.22,494.663L1039.08,518.564C1039.51,519.355 1038.93,520.314 1038.03,520.314L1025.18,520.314C1024.73,520.314 1024.32,520.063 1024.12,519.661L1013,497.566C1012.8,497.166 1012.39,496.912 1011.94,496.912" style="fill:rgb(30,28,26);fill-rule:nonzero;"/>
    </g>
    <g transform="matrix(4.16667,0,0,4.16667,-3438.03,-1583.71)">
        <path d="M837.321,505.574L847.761,503.893C848.374,503.794 848.971,504.18 849.099,504.788C849.866,508.404 852.236,513.343 859.406,513.343C864.568,513.343 867.836,510.417 867.836,505.342C867.836,498.544 860.695,496.74 853.124,493.901C845.725,491.144 838.067,487.616 838.067,476.691C838.067,466.106 845.81,458.794 859.577,458.794C873.292,458.794 879.275,466.142 880.49,472.753C880.609,473.402 880.123,474.01 879.47,474.1L869.186,475.509C868.58,475.592 868.016,475.206 867.874,474.609C867.178,471.69 865.352,467.053 858.89,467.053C854.5,467.053 850.974,469.549 850.974,474.538C850.974,480.735 858.201,482.281 865.516,485.035C873.344,488.047 881.087,491.748 881.087,502.761C881.087,513.173 873.86,521.605 858.374,521.605C844.621,521.605 838.19,514.909 836.338,506.997C836.182,506.334 836.651,505.683 837.321,505.574" style="fill:rgb(30,28,26);fill-rule:nonzero;"/>
    </g>
</svg>
