<?xml version="1.0" encoding="iso-8859-1"?>
<!-- Generator: Adobe Illustrator 16.0.4, SVG Export Plug-In . SVG Version: 6.00 Build 0)  -->
<!DOCTYPE svg PUBLIC "-//W3C//DTD SVG 1.1//EN" "http://www.w3.org/Graphics/SVG/1.1/DTD/svg11.dtd">
<svg version="1.1" id="Layer_1" xmlns="http://www.w3.org/2000/svg" xmlns:xlink="http://www.w3.org/1999/xlink" x="0px" y="0px"
	 width="80px" height="80px" viewBox="0 0 80 80" style="enable-background:new 0 0 80 80;" xml:space="preserve">
<rect style="fill:none;" width="80" height="80"/>
<path style="opacity:0.35;" d="M12.686,72.519c4.273,3.911,16.971,6.792,28.579,6.454c13.193-0.386,28.311-2.934,29.476-11.284
	c0,0-3.183-5.358-8.36-5.756c0-3.185-0.442-19.104-0.442-19.104l0.25-6.25l-0.75-15.5c1.724-1.645,4.34-5.384,3.392-7.36l0,0
	c-4.722,2.357-10.954,3.178-23.564,3.178c-12.58,0-23.69-1.694-28.432-4.043l-0.077,0.229c-0.583,1.616,0.596,1.013,0.596,1.013
	c0.687,1.152,1.849,4.514,3.423,5.495v36.615v2.801v10.938c-0.274,0.128-0.539,0.259-0.797,0.391c0,0-4.827-3.974-6.571-2.647
	L12.686,72.519z"/>
<path style="fill:#FFFFFF;" d="M68.653,62.993c-4.274,3.911-16.966,6.454-28.58,6.454c-11.615,0-24.307-2.543-28.58-6.454
	l0.484-0.426c1.138-1.263,2.808-1.757,2.808-1.757c0.258-0.133,0.522-0.263,0.797-0.391V31.023v-4.03V14.842
	c-1.573-0.979-2.736-2.063-3.422-3.215c0,0-1.546-1.506-0.599-3.482l0.046-0.056c4.721,2.357,15.854,4.06,28.465,4.06
	c12.58,0,23.69-1.694,28.431-4.043l0.078,0.23c0.582,1.616-0.597,3.292-0.597,3.292c-0.687,1.152-1.85,2.236-3.424,3.216V46.68
	v2.802V60.42c0.274,0.128,0.539,0.258,0.798,0.391c0,0,1.079,0.374,2.822,1.701L68.653,62.993z"/>
<path style="fill:#FFFFFF;stroke:#000000;stroke-width:1.0348;stroke-miterlimit:10;" d="M68.653,62.816
	c-4.271,3.91-16.966,6.453-28.58,6.453c-11.613,0-24.306-2.543-28.579-6.453c-1.346,1.211-2.087,2.529-2.087,3.91
	c0,3.909,13.73,8.351,30.666,8.351c16.938,0,30.667-5.288,30.667-8.351C70.74,65.346,69.999,64.027,68.653,62.816z"/>
<path style="fill:#FFFFFF;stroke:#000000;stroke-width:1.0348;stroke-miterlimit:10;" d="M39.381,3.646
	c-22.293,0-26.953,1.697-27.771,4.266c4.722,2.357,15.855,4.06,28.464,4.06c12.58,0,23.69-1.694,28.432-4.043
	C67.532,5.35,62.184,3.646,39.381,3.646z M40.074,9.03c-3.784,0-6.851-0.58-6.851-1.293c0-0.715,3.067-1.294,6.851-1.294
	c3.785,0,6.851,0.579,6.851,1.294C46.925,8.451,43.858,9.03,40.074,9.03z"/>
<g>
	<path style="fill:none;stroke:#000000;stroke-width:1.0348;stroke-miterlimit:10;" d="M40.074,65.556"/>
	<path style="fill:none;stroke:#000000;stroke-width:1.0348;stroke-miterlimit:10;" d="M69.575,63.683
		c-1.769-2.071-4.215-3.05-4.215-3.05c-0.259-0.132-0.523-0.263-0.798-0.39V49.304c-21.347-2.527-38.479-10.499-48.979-24.13v35.07
		c-0.274,0.127-0.538,0.258-0.796,0.39c0,0-2.695,1.471-3.833,2.734"/>
	<path style="fill:none;stroke:#000000;stroke-width:1.0348;stroke-miterlimit:10;" d="M64.562,54.282V14.666
		c1.574-0.98,2.737-2.064,3.424-3.216c0,0,1.362-1.492,0.52-3.522"/>
	<path style="fill:none;stroke:#000000;stroke-width:1.0348;stroke-miterlimit:10;" d="M12.135,7.093
		c-1.993,2.389,0.027,4.356,0.027,4.356c0.686,1.151,1.85,2.235,3.422,3.215v12.151"/>
</g>
<path style="fill:none;stroke:#000000;stroke-width:0.8773;stroke-miterlimit:10;" d="M64.8,14.634
	c-7.606,2.744-21.064,2.936-24.592,2.936"/>
<path style="fill:none;stroke:#000000;stroke-width:0.8773;stroke-miterlimit:10;" d="M40.208,17.57
	c-3.528,0-16.986-0.192-24.592-2.936"/>
<path style="fill:none;stroke:#000000;stroke-width:0.9558;stroke-miterlimit:10;" d="M40.208,64.15
	c14.038,0,21.856-2.703,24.621-4.313"/>
<path style="fill:none;stroke:#000000;stroke-width:0.9558;stroke-miterlimit:10;" d="M15.584,59.837
	c2.766,1.61,10.585,4.313,24.624,4.313"/>
<g>
</g>
<g>
</g>
<g>
</g>
<g>
</g>
<g>
</g>
<g>
</g>
<g>
</g>
<g>
</g>
<g>
</g>
<g>
</g>
<g>
</g>
<g>
</g>
<g>
</g>
<g>
</g>
<g>
</g>
</svg>
