<?xml version="1.0" encoding="iso-8859-1"?>
<!-- Generator: Adobe Illustrator 16.0.4, SVG Export Plug-In . SVG Version: 6.00 Build 0)  -->
<!DOCTYPE svg PUBLIC "-//W3C//DTD SVG 1.1//EN" "http://www.w3.org/Graphics/SVG/1.1/DTD/svg11.dtd">
<svg version="1.1" id="Layer_1" xmlns="http://www.w3.org/2000/svg" xmlns:xlink="http://www.w3.org/1999/xlink" x="0px" y="0px"
	 width="80px" height="80.287px" viewBox="0 0 80 80.287" style="enable-background:new 0 0 80 80.287;" xml:space="preserve">
<polygon style="fill:#FFFFFF;" points="67.938,80.167 0,80.167 0,0.167 67.039,0.167 64.82,41.828 "/>
<g>
	<linearGradient id="SVGID_1_" gradientUnits="userSpaceOnUse" x1="60.7832" y1="26.3989" x2="40.1482" y2="40.6808">
		<stop  offset="0" style="stop-color:#D5D7D8"/>
		<stop  offset="0.2234" style="stop-color:#DDDEDF"/>
		<stop  offset="0.5538" style="stop-color:#EFF0F0"/>
		<stop  offset="0.7884" style="stop-color:#EDEEEE"/>
		<stop  offset="0.8728" style="stop-color:#E7E7E7"/>
		<stop  offset="0.933" style="stop-color:#DBDCDC"/>
		<stop  offset="0.9814" style="stop-color:#CBCBCB"/>
		<stop  offset="1" style="stop-color:#C2C2C2"/>
	</linearGradient>
	<path style="fill:url(#SVGID_1_);" d="M53.934,41.685c-1.392-6.562-5.323-17.626-5.323-17.626c-0.384,4.502-5.178,7.95-6.426,9.053
		c0.623,2.251,6.667,12.118,6.667,12.118S52.542,43.122,53.934,41.685z"/>
	<path style="fill:#BDBEC1;" d="M47.413,27.603c2.205-2.729,0.622-4.885-0.431-5.364c-1.057-0.479-2.688,0.192-3.837,2.491
		c-1.152,2.299-2.303,6.896-2.303,6.896s1.104,1.628,1.295,1.725C43.48,32.058,45.207,30.333,47.413,27.603z"/>
	<linearGradient id="SVGID_2_" gradientUnits="userSpaceOnUse" x1="44.1162" y1="37.9487" x2="20.8307" y2="50.6424">
		<stop  offset="0" style="stop-color:#D5D7D8"/>
		<stop  offset="0.1822" style="stop-color:#FFFFFF"/>
		<stop  offset="0.8283" style="stop-color:#EFF0F0"/>
		<stop  offset="1" style="stop-color:#C2C2C2"/>
	</linearGradient>
	<path style="fill:url(#SVGID_2_);" d="M48.899,45.23c-1.835-1.924-7.409-13.44-8.967-15.088c0.824,3.663-11.919,17.7-17.788,25.942
		C32.046,53.611,46.645,47.241,48.899,45.23z"/>
	<path style="fill:#BDBEC1;" d="M39.563,29.985c-3.667-1.099-8.251,11.08-9.167,15.202C35.254,39.691,41.649,30.61,39.563,29.985z"
		/>
	<path style="fill:none;stroke:#000000;stroke-width:0.8041;stroke-miterlimit:10;" d="M21.32,0.167
		c0.296,0.866-0.149-0.425,0.275,0.79l-9.716,10.438"/>
	<path style="fill:none;stroke:#000000;stroke-width:0.8041;stroke-miterlimit:10;" d="M10.206,80.167
		c6.211-20.078,11.207-64.743,11.207-64.743S0.425,6.613,0,6.613"/>
	<path style="fill:none;stroke:#000000;stroke-width:0.8041;stroke-miterlimit:10;" d="M24.014,53.708c0,0-4.199,1.922-5.47,3.192
		c-1.271,1.271,31.234-7.764,38.302-18.354c-1.413-0.564-3.393,0.848-3.393,0.848"/>
	<path style="fill:none;stroke:#000000;stroke-width:0.8041;stroke-miterlimit:10;" d="M18.967,74.831
		c0,0,31.236-10.448,37.594-18.637"/>
	
		<line style="fill:none;stroke:#000000;stroke-width:0.8041;stroke-miterlimit:10;" x1="18.685" y1="56.9" x2="19.109" y2="74.831"/>
	
		<line style="fill:none;stroke:#000000;stroke-width:0.8041;stroke-miterlimit:10;" x1="56.986" y1="38.406" x2="56.562" y2="56.759"/>
	<path style="fill:none;stroke:#000000;stroke-width:0.8041;stroke-miterlimit:10;" d="M22.047,56.388
		c0,0,15.866-20.36,17.333-23.473c1.467-3.113-0.184-3.846-1.833-2.197c-1.65,1.647-5.684,6.958-7.241,14.833"/>
	<path style="fill:none;stroke:#000000;stroke-width:0.8041;stroke-miterlimit:10;" d="M67.039,0.167
		c-0.531,8.594-2.517,39.977-2.194,44.168c0.327,4.253,1.558,24.045,3.094,35.832"/>
	<path style="fill:none;stroke:#070808;stroke-width:0.8041;stroke-miterlimit:10;" d="M48.945,45.23
		c-0.144-0.097-0.335,0.239-4.123-6.466c-3.932-7.665-4.604-8.047-4.938-8.622"/>
	<path style="fill:none;stroke:#000000;stroke-width:0.8041;stroke-miterlimit:10;" d="M53.885,41.828
		c-0.383-2.155-4.22-14.607-4.699-16.379c-0.479-1.772-1.486-4.215-3.979-3.113c-2.493,1.102-4.412,9.052-4.412,9.052"/>
	<path style="fill:none;stroke:#000000;stroke-width:0.8041;stroke-miterlimit:10;" d="M41.993,33.351c0,0,7.624-5.892,6.427-9.771"
		/>
</g>
<rect y="0.167" style="fill:none;" width="80" height="80"/>
<g>
</g>
<g>
</g>
<g>
</g>
<g>
</g>
<g>
</g>
<g>
</g>
<g>
</g>
<g>
</g>
<g>
</g>
<g>
</g>
<g>
</g>
<g>
</g>
<g>
</g>
<g>
</g>
<g>
</g>
</svg>
